<svg width="862" height="240" viewBox="0 0 862 240" fill="none" xmlns="http://www.w3.org/2000/svg">
<path fill-rule="evenodd" clip-rule="evenodd" d="M85.2707 63.8261C85.2707 52.8764 94.0763 44 104.939 44H180.332C191.194 44 200 52.8764 200 63.8261V176.174C200 187.124 191.194 196 180.332 196H104.939C94.0763 196 85.2707 187.124 85.2707 176.174V63.8261ZM109.856 77.0436C109.856 71.5688 114.259 67.1306 119.69 67.1306H132.802C138.233 67.1306 142.636 71.5688 142.636 77.0436C142.636 82.5184 138.233 86.9566 132.802 86.9566H119.69C114.259 86.9566 109.856 82.5184 109.856 77.0436ZM109.856 118.348C109.856 112.873 114.259 108.435 119.69 108.435H165.582C171.013 108.435 175.416 112.873 175.416 118.348C175.416 123.823 171.013 128.261 165.582 128.261H119.69C114.259 128.261 109.856 123.823 109.856 118.348Z" fill="#00D6BC"/>
<path d="M52.9464 66.8615L75.4368 58.6098V187.118L41.1915 92.2728C37.4764 81.9835 42.7392 70.6065 52.9464 66.8615Z" fill="#00D6BC"/>
<path d="M272.748 91.874C263.08 91.874 256 84.0756 256 74.5294C256 65.1176 263.625 57.3193 273.769 57.3193C283.845 57.3193 291.538 64.7143 291.538 74.5294V91.0672H285.139V85.2857C282.62 89.3193 278.194 91.874 272.748 91.874ZM273.769 85.5546C280.033 85.5546 284.798 80.5798 284.798 74.5966C284.798 68.5462 280.033 63.5714 273.769 63.5714C267.574 63.5714 262.74 68.5462 262.74 74.5966C262.74 80.5798 267.574 85.5546 273.769 85.5546Z" fill="#64748B"/>
<path d="M300.512 43H307.252V91.0672H300.512V43Z" fill="#64748B"/>
<path d="M331.78 91.8067C321.636 91.8067 314.079 84.5462 314.079 74.395C314.079 64.916 320.955 57.1849 330.963 57.1849C341.039 57.1849 347.303 64.3782 347.303 73.5882V76.2773H320.615C321.364 81.9244 325.721 85.8908 331.712 85.8908C335.797 85.8908 339.473 84.1429 341.448 80.5126L346.622 83.1345C343.694 88.7815 338.316 91.8067 331.78 91.8067ZM320.887 71.9748H340.563C340.29 66.7311 336.41 63.1681 330.895 63.1681C325.244 63.1681 321.568 67.0672 320.887 71.9748Z" fill="#64748B"/>
<path d="M368.353 107C361.136 107 355.145 103.908 352.082 98.0588L357.732 95.0336C359.707 98.5966 363.383 100.882 368.217 100.882C375.229 100.882 379.995 95.9076 379.995 88.1765V85.5546C377.816 88.9832 373.732 91.5378 368.149 91.5378C358.686 91.5378 351.197 84.1429 351.197 74.4622C351.197 65.0504 358.822 57.3193 368.966 57.3193C379.042 57.3193 386.735 64.7143 386.735 74.5294V88.1092C386.735 99.5378 378.974 107 368.353 107ZM368.898 85.2857C375.025 85.2857 379.927 80.4454 379.927 74.395C379.927 68.3445 375.025 63.6387 368.898 63.6387C362.839 63.6387 357.869 68.3445 357.869 74.395C357.869 80.4454 362.839 85.2857 368.898 85.2857Z" fill="#64748B"/>
<path d="M401.087 91.0672H394.347V71.437C394.347 63.437 398.977 57.4538 407.691 57.4538C409.802 57.4538 411.98 57.8571 413.682 58.6639V65.2521C412.048 64.3109 410.142 63.8403 408.304 63.8403C403.811 63.8403 401.087 66.8655 401.087 71.7059V91.0672Z" fill="#64748B"/>
<path d="M431.21 91.874C421.542 91.874 414.462 84.0756 414.462 74.5294C414.462 65.1176 422.087 57.3193 432.231 57.3193C442.307 57.3193 450 64.7143 450 74.5294V91.0672H443.6V85.2857C441.081 89.3193 436.656 91.874 431.21 91.874ZM432.231 85.5546C438.494 85.5546 443.26 80.5798 443.26 74.5966C443.26 68.5462 438.494 63.5714 432.231 63.5714C426.035 63.5714 421.202 68.5462 421.202 74.5966C421.202 80.5798 426.035 85.5546 432.231 85.5546Z" fill="#64748B"/>
<path d="M267.425 195.558H256V131.422C256 125.097 258.8 121.214 266.529 121.214H307.749V131.644H267.425V156.832H305.173V167.263H267.425V195.558Z" fill="#334155"/>
<path d="M340.108 196.889C324.202 196.889 312.553 184.018 312.553 168.261C312.553 152.727 325.098 139.855 341.788 139.855C358.366 139.855 371.023 152.061 371.023 168.261V195.558H360.494V186.015C356.35 192.673 349.069 196.889 340.108 196.889ZM341.788 186.459C352.093 186.459 359.934 178.248 359.934 168.372C359.934 158.386 352.093 150.175 341.788 150.175C331.595 150.175 323.642 158.386 323.642 168.372C323.642 178.248 331.595 186.459 341.788 186.459Z" fill="#334155"/>
<path d="M408.75 196.778C392.956 197 380.075 184.018 380.075 168.261C380.075 152.616 392.956 139.744 408.75 139.855C418.831 139.855 428.127 144.405 433.168 154.169L423.983 159.273C420.735 153.392 415.246 150.286 408.75 150.286C399.117 150.286 391.164 158.386 391.164 168.261C391.164 178.248 399.117 186.459 408.75 186.459C415.246 186.459 420.735 183.352 423.983 177.471L433.168 182.464C428.127 192.34 418.831 196.778 408.75 196.778Z" fill="#334155"/>
<path d="M466.093 197C452.428 197 445.147 188.456 445.147 176.028V150.729H434.282V141.187H445.147V127.095H456.236V141.187H477.294V150.729H456.236V175.696C456.236 182.797 460.493 187.014 467.101 187.014C470.686 187.014 474.606 185.682 477.294 183.796V193.893C474.494 195.779 470.125 197 466.093 197Z" fill="#334155"/>
<path d="M514.392 186.237C524.585 186.237 530.185 177.471 530.185 167.373V141.187H541.274V168.705C541.274 184.461 531.641 196.889 514.392 196.889C497.366 196.889 487.733 184.35 487.733 168.594V141.187H498.822V167.484C498.822 177.471 504.311 186.237 514.392 186.237Z" fill="#334155"/>
<path d="M564.495 195.558H553.406V163.157C553.406 149.953 561.022 140.077 575.36 140.077C578.832 140.077 582.416 140.743 585.217 142.074V152.949C582.528 151.395 579.392 150.618 576.368 150.618C568.975 150.618 564.495 155.612 564.495 163.601V195.558Z" fill="#334155"/>
<path d="M614.053 196.889C598.148 196.889 586.499 184.018 586.499 168.261C586.499 152.727 599.044 139.855 615.733 139.855C632.311 139.855 644.968 152.061 644.968 168.261V195.558H634.439V186.015C630.295 192.673 623.014 196.889 614.053 196.889ZM615.733 186.459C626.038 186.459 633.879 178.248 633.879 168.372C633.879 158.386 626.038 150.175 615.733 150.175C605.54 150.175 597.588 158.386 597.588 168.372C597.588 178.248 605.54 186.459 615.733 186.459Z" fill="#334155"/>
<path d="M682.695 196.778C666.901 197 654.02 184.018 654.02 168.261C654.02 152.616 666.901 139.744 682.695 139.855C692.776 139.855 702.073 144.405 707.113 154.169L697.928 159.273C694.68 153.392 689.192 150.286 682.695 150.286C673.062 150.286 665.109 158.386 665.109 168.261C665.109 178.248 673.062 186.459 682.695 186.459C689.192 186.459 694.68 183.352 697.928 177.471L707.113 182.464C702.073 192.34 692.776 196.778 682.695 196.778Z" fill="#334155"/>
<path d="M722.789 130.424C718.756 130.424 715.508 127.206 715.508 123.211C715.508 119.217 718.756 115.888 722.789 115.888C726.821 115.888 729.957 119.217 729.957 123.211C729.957 127.206 726.821 130.424 722.789 130.424ZM717.3 141.187H728.389V195.558H717.3V141.187Z" fill="#334155"/>
<path d="M774.008 131.866H762.695L775.913 115H787.45L774.008 131.866ZM768.968 196.889C752.39 196.889 739.621 184.018 739.621 168.261C739.621 152.616 752.502 139.855 768.968 139.855C785.546 139.855 798.091 152.727 798.091 168.261C798.091 184.018 785.434 196.889 768.968 196.889ZM768.968 186.459C779.161 186.459 787.002 178.248 787.002 168.372C787.002 158.386 779.161 150.175 768.968 150.175C758.663 150.175 750.71 158.386 750.71 168.372C750.71 178.248 758.663 186.459 768.968 186.459Z" fill="#334155"/>
<path d="M834.333 150.396C823.58 150.396 818.204 159.162 818.204 169.26V195.558H807.115V168.15C807.115 152.283 816.636 139.855 834.333 139.855C852.255 139.855 862 152.283 862 168.039V195.558H850.911V169.371C850.911 159.162 845.31 150.396 834.333 150.396Z" fill="#334155"/>
</svg>
